<?xml version="1.0" standalone="no"?>
<!DOCTYPE svg PUBLIC "-//W3C//DTD SVG 20010904//EN"
 "http://www.w3.org/TR/2001/REC-SVG-20010904/DTD/svg10.dtd">
<svg version="1.0" xmlns="http://www.w3.org/2000/svg"
 width="278.000000pt" height="257.000000pt" viewBox="0 0 278.000000 257.000000"
 preserveAspectRatio="xMidYMid meet">

<g transform="translate(0.000000,257.000000) scale(0.100000,-0.100000)"
fill="#7c2f8a" stroke="none">
<path d="M1245 2560 c-236 -26 -470 -111 -665 -243 -96 -66 -282 -251 -343
-343 -147 -223 -211 -431 -210 -689 0 -250 63 -463 194 -664 l34 -51 398 0
398 0 -36 31 c-48 42 -67 82 -68 141 l-1 48 -63 0 c-78 0 -81 6 -61 104 8 39
13 114 12 166 -2 130 -2 130 -19 130 -13 0 -15 28 -15 188 l0 187 177 -3 c98
-1 193 -4 211 -7 l32 -6 0 -174 0 -175 29 0 c27 0 30 3 33 38 3 35 5 37 41 40
33 3 36 5 27 22 -5 10 -17 80 -26 157 -25 215 -7 323 69 401 28 29 30 34 15
43 -27 15 -51 93 -45 141 14 105 154 133 239 48 40 -40 48 -67 23 -76 -17 -7
-20 -46 -5 -74 16 -29 -30 -98 -67 -102 -36 -4 -33 -22 18 -111 21 -38 39 -74
39 -81 0 -7 8 -20 18 -29 19 -17 125 -71 211 -108 l53 -22 17 21 c18 24 79 52
114 52 27 0 41 -25 52 -91 8 -45 -13 -69 -59 -69 -18 0 -36 -3 -39 -7 -10 -9
115 -244 133 -250 52 -18 71 -31 76 -50 5 -18 16 -23 62 -29 67 -8 86 -16 130
-57 50 -48 45 -57 -42 -72 l-39 -6 29 -18 c65 -41 94 -92 94 -168 0 -58 -23
-106 -69 -143 l-36 -30 105 0 105 0 34 51 c132 202 194 416 194 664 0 259 -63
466 -210 689 -61 92 -247 277 -343 343 -274 185 -635 277 -955 243z m-587
-1032 c-3 -26 13 -24 -253 -20 -128 2 -135 3 -135 22 0 19 7 20 196 20 l195 0
-3 -22z m-58 -168 c0 -20 -5 -20 -217 -18 -198 3 -218 5 -221 21 -3 16 12 17
217 17 215 0 221 -1 221 -20z m60 -180 c0 -19 -7 -20 -149 -20 -89 0 -152 4
-156 10 -15 25 13 30 156 30 142 0 149 -1 149 -20z"/>
<path d="M1570 1517 c0 -19 3 -49 6 -66 6 -30 10 -32 148 -76 97 -31 145 -51
154 -65 15 -24 15 -81 2 -169 -10 -64 -27 -178 -35 -233 -3 -21 1 -27 22 -33
57 -14 126 103 126 215 0 65 -21 119 -83 210 -9 14 -25 48 -35 75 -10 28 -23
55 -28 62 -5 7 -43 19 -85 28 -97 21 -127 32 -163 63 l-29 24 0 -35z"/>
<path d="M1640 1191 c-6 -16 -21 -31 -31 -34 -19 -5 -18 -9 16 -77 20 -39 40
-68 44 -65 5 3 12 24 16 48 3 23 11 64 17 91 8 39 8 50 -3 57 -26 16 -47 9
-59 -20z"/>
<path d="M1964 773 c-11 -16 -21 -37 -24 -48 -6 -19 -16 -20 -303 -23 l-296
-2 -17 -35 c-9 -20 -33 -49 -53 -65 l-36 -30 446 0 446 0 -42 43 c-47 46 -71
109 -60 158 6 26 4 29 -18 29 -16 0 -31 -10 -43 -27z"/>
<path d="M295 518 c218 -261 493 -424 827 -489 158 -31 378 -31 536 0 323 63
605 227 814 474 l40 47 -1122 0 -1122 0 27 -32z"/>
</g>
</svg>
