<?xml version="1.0" standalone="no"?>
<!DOCTYPE svg PUBLIC "-//W3C//DTD SVG 20010904//EN"
 "http://www.w3.org/TR/2001/REC-SVG-20010904/DTD/svg10.dtd">
<svg version="1.0" xmlns="http://www.w3.org/2000/svg"
 width="724.000000pt" height="345.000000pt" viewBox="0 0 724.000000 345.000000"
 preserveAspectRatio="xMidYMid meet">

<g transform="translate(0.000000,345.000000) scale(0.100000,-0.100000)"
fill="#000000" stroke="none">
<path d="M1155 3330 c-273 -43 -498 -203 -610 -435 -55 -115 -75 -198 -75
-317 0 -109 23 -212 69 -309 43 -92 58 -115 131 -192 116 -123 270 -208 439
-242 112 -23 294 -16 401 15 202 58 393 207 482 376 85 161 111 306 84 463
-52 302 -260 526 -572 616 -100 29 -253 40 -349 25z m219 -250 c36 -13 63 -57
46 -73 -10 -10 -12 -9 -7 4 16 47 -70 86 -118 55 -20 -13 -25 -25 -25 -55 0
-22 6 -44 15 -51 20 -17 19 -24 -11 -57 -20 -22 -23 -24 -15 -6 6 12 16 25 21
28 6 4 5 14 -5 28 -16 22 -20 84 -7 103 20 30 64 40 106 24z m32 -147 c-8 -15
-15 -25 -16 -21 0 12 23 58 27 54 3 -2 -2 -17 -11 -33z m-34 -32 c-12 -7 -11
-14 3 -42 14 -28 14 -31 2 -19 -9 8 -19 27 -22 43 -6 22 -4 27 11 27 15 0 16
-2 6 -9z m62 -140 c-5 -6 -34 20 -34 30 0 5 8 1 18 -8 10 -10 17 -20 16 -22z
m122 -58 c-5 -5 -106 39 -106 47 0 3 25 -5 55 -19 30 -14 53 -26 51 -28z
m-402 37 c26 -9 26 -10 24 -117 l-2 -108 -3 106 c-4 126 4 119 -145 119 l-98
0 0 -104 c0 -61 4 -106 10 -109 6 -3 5 -4 -2 -3 -9 2 -14 31 -16 101 -1 54 0
105 2 112 6 16 190 19 230 3z m251 -10 c10 -11 34 -23 54 -26 20 -4 43 -11 51
-16 27 -16 -52 2 -93 22 -31 15 -37 15 -33 4 3 -9 1 -12 -4 -9 -12 8 -13 45
-2 45 5 0 17 -9 27 -20z m-722 3 c-13 -2 -33 -2 -45 0 -13 2 -3 4 22 4 25 0
35 -2 23 -4z m995 -18 c4 -19 3 -20 -11 -1 -10 13 -22 17 -40 14 -15 -3 -24
-1 -21 4 3 5 20 8 37 6 23 -2 33 -9 35 -23z m-441 -17 c-3 -8 -6 -5 -6 6 -1
11 2 17 5 13 3 -3 4 -12 1 -19z m338 -68 c4 -16 11 -32 16 -35 5 -4 9 -11 9
-16 0 -6 -4 -8 -9 -4 -5 3 -12 -5 -14 -17 -2 -13 -3 -9 -2 8 2 18 -2 31 -8 32
-32 3 -107 26 -107 33 0 7 81 -14 100 -26 13 -8 13 7 0 40 -6 15 -6 24 -1 20
5 -3 12 -19 16 -35z m78 13 c-7 -2 -19 -2 -25 0 -7 3 -2 5 12 5 14 0 19 -2 13
-5z m8 -75 c17 -35 35 -64 39 -66 4 -1 16 -9 26 -17 18 -13 18 -14 -4 -8 -26
6 -45 32 -78 104 -33 71 -20 60 17 -13z m-388 7 c1 -6 -11 -11 -26 -13 -23 -3
-28 -8 -24 -23 3 -10 1 -19 -4 -19 -5 0 -9 11 -9 25 0 20 5 25 26 25 16 0 23
4 18 11 -4 7 -2 10 5 8 7 -3 13 -9 14 -14z m366 -70 c11 -41 -3 -124 -25 -145
-14 -13 -14 -11 0 18 22 43 22 110 1 153 -16 30 -16 32 -2 20 9 -7 21 -28 26
-46z m-184 27 c-11 -3 -25 -12 -32 -21 -15 -19 -17 -7 -3 19 7 13 16 16 32 12
21 -6 22 -6 3 -10z m12 -34 c-3 -8 -6 -5 -6 6 -1 11 2 17 5 13 3 -3 4 -12 1
-19z m-25 -78 c4 0 8 12 9 28 0 15 3 21 6 14 7 -17 -5 -62 -16 -62 -5 0 -16
15 -25 34 -21 44 -20 61 1 19 9 -18 20 -33 25 -33z m117 -13 c-10 -64 -6 -82
20 -72 11 4 13 3 5 -5 -6 -6 -18 -8 -28 -4 -14 5 -16 15 -10 68 6 58 12 81 19
74 2 -2 -1 -29 -6 -61z m295 18 c26 -19 9 -19 -24 0 -14 8 -37 14 -52 15 -16
0 -28 4 -28 9 0 12 77 -6 104 -24z m5 -90 c17 -20 31 -41 31 -48 0 -7 -5 -3
-11 8 -6 11 -25 32 -42 48 -17 15 -26 27 -20 27 6 0 25 -16 42 -35z m-199 -45
c0 -5 -9 -10 -19 -10 -12 0 -25 -11 -33 -27 l-13 -28 -170 0 c-166 -1 -167 -1
-20 2 175 3 191 6 198 33 4 16 27 32 55 39 1 1 2 -3 2 -9z m-662 -7 c-10 -2
-28 -2 -40 0 -13 2 -5 4 17 4 22 1 32 -1 23 -4z m243 -70 c-12 -20 -14 -14 -5
12 4 9 9 14 11 11 3 -2 0 -13 -6 -23z m635 -18 c-17 -26 -56 -52 -56 -37 0 5
11 14 25 20 14 6 28 24 31 39 4 15 9 22 12 15 2 -7 -3 -24 -12 -37z m-846 24
c0 -6 14 -24 32 -41 28 -26 29 -28 6 -18 -26 12 -67 70 -49 70 6 0 11 -5 11
-11z m683 -53 l22 -18 -24 14 c-14 8 -31 25 -39 39 -14 23 -13 23 2 4 9 -11
27 -28 39 -39z m-492 10 c-6 -8 -21 -16 -32 -19 -24 -6 -19 1 13 19 31 16 32
16 19 0z"/>
</g>
</svg>
