<?xml version="1.0" standalone="no"?>
<!DOCTYPE svg PUBLIC "-//W3C//DTD SVG 20010904//EN"
 "http://www.w3.org/TR/2001/REC-SVG-20010904/DTD/svg10.dtd">
<svg version="1.0" xmlns="http://www.w3.org/2000/svg"
 width="512.000000pt" height="512.000000pt" viewBox="0 0 512.000000 512.000000"
 preserveAspectRatio="xMidYMid meet">

<g transform="translate(0.000000,512.000000) scale(0.100000,-0.100000)"
fill="#000000" stroke="none">
<path d="M50 2448 c0 -207 12 -276 62 -370 45 -84 119 -152 249 -228 l113 -66
22 -91 c77 -315 292 -566 485 -566 52 0 66 6 197 81 77 45 144 82 147 82 4 0
164 -91 356 -201 l348 -202 11 -56 c51 -260 214 -502 390 -582 26 -12 69 -21
101 -22 52 -2 64 3 185 72 188 108 177 93 103 136 l-64 37 -2 96 c-7 333 -253
691 -487 709 -50 4 -70 1 -103 -15 l-41 -21 -56 37 -55 37 -3 98 -3 99 -973
559 c-536 307 -975 559 -978 559 -2 0 -4 -82 -4 -182z m773 -552 c18 -7 53
-35 78 -62 164 -177 147 -485 -24 -434 -144 43 -262 310 -197 445 30 62 78 79
143 51z m1578 -914 c54 -35 90 -81 132 -170 28 -59 31 -78 32 -154 0 -96 -15
-130 -70 -157 -93 -45 -246 119 -274 294 -27 171 61 262 180 187z"/>
<path d="M767 1772 c-23 -25 -22 -106 2 -157 38 -82 115 -124 148 -79 36 49
-6 188 -70 232 -40 27 -59 28 -80 4z"/>
<path d="M2326 877 c-11 -8 -20 -31 -23 -58 -10 -87 61 -199 127 -199 38 0 52
21 52 79 -1 64 -37 138 -82 169 -38 26 -49 27 -74 9z"/>
<path d="M2199 2579 c-20 -20 -20 -29 -17 -247 3 -223 3 -228 30 -282 15 -30
44 -71 65 -91 21 -20 265 -204 542 -408 386 -285 510 -371 532 -371 44 0 69
31 69 88 0 70 -38 449 -51 507 -26 114 -111 241 -206 306 -100 69 -897 519
-919 519 -13 0 -33 -9 -45 -21z"/>
<path d="M4565 2585 c-16 -9 -248 -143 -514 -298 -438 -256 -486 -286 -504
-320 l-20 -38 27 -212 c51 -396 73 -534 91 -560 23 -36 88 -60 129 -49 60 17
888 500 928 541 62 66 63 51 -13 616 -47 348 -50 356 -124 320z"/>
<path d="M4860 1076 l0 -74 -392 -230 c-216 -126 -477 -279 -580 -340 -102
-60 -202 -115 -221 -121 -36 -12 -92 -4 -127 18 -10 7 -29 2 -62 -17 l-48 -27
2 -104 3 -105 49 -28 c73 -43 123 -54 172 -37 64 22 1302 740 1340 777 60 58
86 153 60 215 -11 27 -33 48 -83 80 -123 79 -113 79 -113 -7z"/>
<path d="M4315 960 c-170 -99 -314 -181 -319 -183 -11 -4 39 -104 67 -134 39
-43 74 -32 301 100 115 67 218 133 228 148 12 16 24 62 33 125 17 117 17 124
8 123 -5 0 -147 -81 -318 -179z"/>
</g>
</svg>
